<?xml version="1.0" encoding="UTF-8" standalone="no"?>
<!DOCTYPE svg PUBLIC "-//W3C//DTD SVG 1.1//EN" "http://www.w3.org/Graphics/SVG/1.1/DTD/svg11.dtd">
<svg width="100%" height="100%" viewBox="0 0 65 42" version="1.1" xmlns="http://www.w3.org/2000/svg" xmlns:xlink="http://www.w3.org/1999/xlink" xml:space="preserve" xmlns:serif="http://www.serif.com/" style="fill-rule:evenodd;clip-rule:evenodd;stroke-linejoin:round;stroke-miterlimit:2;">
    <g transform="matrix(1,0,0,1,-3004.46,-305.434)">
        <g transform="matrix(1.64423,0,0,2.43062,5.99038,0)">
            <g transform="matrix(0.0974219,0,0,0.0682311,1843.11,134.247)">
                <g transform="matrix(1,0,0,1,-200,-125.833)">
                    <g id="svgg">
                        <path id="path2" d="M331.043,249.795C330.642,249.754 330.408,249.707 330.388,249.654C330.322,249.481 330.447,248.49 330.664,247.451C330.882,246.413 331.156,244.997 331.274,244.305C331.392,243.612 331.963,240.724 332.543,237.885C333.124,235.047 333.804,231.649 334.056,230.334C334.307,229.018 334.575,227.772 334.652,227.565C334.729,227.357 334.976,226.167 335.202,224.921C335.427,223.675 335.708,222.203 335.825,221.649C336.188,219.938 337.46,213.471 338.325,208.936C338.47,208.175 338.751,206.816 338.949,205.916C339.297,204.332 339.818,201.751 340.474,198.364C340.648,197.464 341.092,195.312 341.461,193.581C341.83,191.85 342.406,188.962 342.742,187.162C343.078,185.362 343.587,182.756 343.874,181.372C344.161,179.987 344.496,178.288 344.619,177.596C344.742,176.904 345.077,175.205 345.363,173.82C345.65,172.435 346.12,170.113 346.409,168.66C346.697,167.206 347.022,165.62 347.13,165.135C347.301,164.373 348.276,159.522 349.154,155.066C349.304,154.305 349.592,152.775 349.792,151.668C349.993,150.56 350.265,149.257 350.397,148.773C350.528,148.288 350.703,147.568 350.786,147.173C350.995,146.17 352.05,146.416 361.538,149.68C364.209,150.599 367.867,151.847 369.666,152.454L369.723,152.473C369.798,152.504 369.864,152.531 369.918,152.554C370.097,152.632 370.683,152.828 371.412,153.057C372.434,153.419 373.204,153.709 373.355,153.795C373.583,153.926 374.49,154.219 375.369,154.446C376.248,154.673 377.08,154.944 377.218,155.047C377.357,155.15 378.23,155.435 379.159,155.679C379.895,155.872 380.373,156.013 380.695,156.189C380.978,156.458 381.217,156.962 381.512,158.044C381.609,158.615 381.76,159.406 381.883,159.975C382.033,160.667 382.261,161.8 382.391,162.492C382.521,163.184 382.749,164.317 382.898,165.009C383.047,165.702 383.269,166.834 383.393,167.527C383.516,168.219 383.846,169.918 384.126,171.303C384.406,172.687 384.852,174.953 385.118,176.337C385.384,177.722 385.965,180.61 386.409,182.756C387.385,187.465 387.893,190.01 389.425,197.86C389.709,199.314 390.158,201.58 390.422,202.895C390.686,204.21 391.133,206.476 391.414,207.93C391.97,210.802 392.47,213.292 393.082,216.237C393.66,219.02 395.966,230.581 396.509,233.417C396.768,234.767 397.199,236.976 397.467,238.326C399.239,247.241 399.566,249.172 399.385,249.644C399.321,249.812 397.056,249.92 394.168,249.968L390.497,249.968L386.761,249.968C383.985,249.921 381.818,249.816 381.692,249.654C381.558,249.481 381.131,248.093 380.743,246.57C379.888,243.209 379.176,240.881 378.188,238.592C378.133,238.456 378.083,238.34 378.038,238.248C377.156,236.26 376.051,234.266 374.449,231.613C374.077,230.997 373.663,230.5 372.271,229.087C370.781,227.254 369.407,225.818 368.964,225.802C368.074,224.947 367.845,224.795 367.668,224.795C367.561,224.795 367.048,224.459 366.529,224.048C364.497,222.439 360.03,220.537 356.308,219.698C356.203,219.674 356.105,219.695 356.008,219.769L355.771,219.729L355.604,220.436C355.313,221.181 355.002,222.544 354.579,224.795C354.384,225.834 353.985,227.873 353.693,229.327C353.025,232.646 352.015,238.107 351.551,240.906C350.879,244.952 349.934,249.254 349.637,249.611C349.466,249.818 346.122,249.946 342.268,249.988C337.908,250.017 332.924,249.952 331.043,249.795ZM107.418,157.347C113.019,157.001 120.039,158.014 124.449,159.745C125.228,160.078 125.975,160.44 126.694,160.83C126.859,160.931 127.016,161.034 127.163,161.138C127.53,161.398 127.907,161.611 128,161.611C128.012,161.611 128.025,161.612 128.039,161.614C128.593,161.961 129.127,162.324 129.637,162.702C131.627,164.391 134.69,167.585 135.413,168.918C138.221,174.097 138.55,175.371 138.565,181.12C138.579,186.524 137.052,191.456 134.222,195.582C131.69,199.119 128.129,202.237 123.519,204.553C122.677,204.957 121.804,205.328 120.902,205.666C119.49,206.195 119.496,206.413 120.973,208.365C121.725,209.359 122.341,210.264 122.341,210.375C122.341,210.486 122.568,210.719 122.845,210.892C122.868,210.907 122.891,210.922 122.914,210.938C123.096,211.204 123.279,211.474 123.461,211.746C123.59,212.005 123.818,212.387 124.075,212.768C124.646,213.614 125.145,214.369 125.576,215.036C126.328,216.255 127.066,217.499 127.772,218.743C131.689,225.85 133.672,230.588 135.903,238.011C137.058,241.855 138.578,249.026 138.359,249.597C138.287,249.784 135.507,249.91 132.006,249.969L128.162,249.969C125.927,249.969 124.159,249.977 122.758,249.972C121.235,249.945 119.917,249.903 119,249.845C118.204,249.754 117.774,249.6 117.518,249.342C117.36,248.882 117.107,248.001 116.873,247.074C114.86,239.124 110.583,229.261 106.545,223.255C106.095,222.586 105.727,221.972 105.727,221.89C105.727,221.748 104.573,220.134 104.236,219.796L104.066,219.574C103.995,219.483 103.924,219.391 103.853,219.299L103.719,219.128C103.627,218.998 103.529,218.856 103.432,218.711C102.6,217.47 98.882,213.216 98.63,213.216C98.52,213.216 98.401,221.457 98.365,231.529L98.301,249.843L78.918,249.843L79.005,207.93C79.013,204.082 79.022,200.35 79.032,196.801C79.093,177.879 79.197,166.455 79.32,165.758C79.566,165.6 80.121,165.308 80.737,165.017C83.051,163.922 84.628,163.226 86.206,162.618C86.378,162.615 86.567,162.541 86.664,162.443C87.053,162.298 87.446,162.155 87.854,162.012C88.892,161.648 89.969,161.246 90.245,161.12C90.875,160.833 94.78,159.683 96.79,159.192C97.621,158.99 98.697,158.724 99.182,158.603C100.012,158.395 101.786,158.088 104.972,157.602L105.113,157.581C105.453,157.546 105.823,157.508 106.23,157.466C106.663,157.422 107.057,157.382 107.418,157.347ZM304.448,163.735L304.72,163.395C305.481,162.452 306.104,161.609 306.104,161.522C306.104,161.434 306.806,160.427 307.663,159.284C310.482,155.524 311.085,154.706 312.188,153.139C315.302,148.715 315.703,148.293 316.924,148.145C317.55,148.07 318.798,147.898 319.698,147.764C320.598,147.631 323.373,147.34 325.865,147.12C328.357,146.899 331.416,146.619 332.662,146.498C333.908,146.377 336.457,146.149 338.326,145.99C340.195,145.832 341.768,145.66 341.822,145.608C342.04,145.399 342.349,145.808 342.182,146.084C341.988,146.403 339.596,149.649 337.636,152.252C336.977,153.126 336.325,154.033 336.186,154.265C336.048,154.498 335.358,155.425 334.654,156.325C333.95,157.225 333.327,158.101 333.27,158.273C333.212,158.444 332.623,159.293 331.959,160.16C329.58,163.269 325.036,169.385 324.948,169.597C324.859,169.811 320.549,175.648 317.999,179.009C317.272,179.967 316.677,180.809 316.677,180.881C316.677,180.92 316.526,181.148 316.288,181.476L316.134,181.667C315.325,182.66 314.664,183.535 314.663,183.614C313.909,184.611 312.904,185.958 312.018,187.162C310.693,188.962 309.103,191.082 308.486,191.873C307.868,192.664 307.363,193.389 307.363,193.483C307.363,193.578 306.987,194.12 306.528,194.688C306.068,195.256 305.311,196.287 304.845,196.979C304.727,197.154 304.611,197.324 304.502,197.482L304.436,197.57C304.21,197.871 304.002,198.149 303.812,198.404C302.764,199.335 302.199,200.069 302.129,200.866C301.856,201.432 301.968,201.669 302.234,202.046C302.413,202.299 302.575,202.526 302.727,202.738C303.024,203.212 303.431,203.739 303.949,204.346C304.348,204.844 304.823,205.413 305.49,206.203C305.653,206.396 305.821,206.599 305.994,206.811C306.223,207.113 306.356,207.314 306.356,207.365C306.356,207.503 306.536,207.765 306.755,207.947C307.172,208.293 311.391,214.145 311.391,214.377C311.391,214.45 311.711,214.983 312.101,215.562C313.317,217.362 315.902,222.309 317.367,225.551C318.22,227.527 319.098,229.796 319.933,232.143C320.508,233.843 321.183,235.922 321.458,236.879C321.638,237.502 321.925,238.464 322.096,239.018C323.061,242.137 324.573,249.113 324.389,249.594C324.264,249.917 322.804,249.969 313.673,249.969L307.092,249.969C303.742,249.939 302.932,249.775 302.632,249.051C302.589,248.869 302.534,248.647 302.47,248.392C302.431,248.157 302.392,247.887 302.329,247.577C302.16,246.746 301.937,245.953 301.833,245.815C301.813,245.788 301.791,245.748 301.768,245.697C301.659,245.289 301.545,244.864 301.427,244.43L301.425,244.424C301.138,243.099 300.394,240.816 299.508,238.411C299.19,237.474 298.93,236.742 298.822,236.501L298.468,235.696C297.628,233.588 296.769,231.631 296.111,230.407C295.018,228.374 293.721,226.193 293.522,226.054C293.422,225.985 293.044,225.454 292.681,224.874C291.686,223.285 287.159,217.928 286.055,217.033L283.994,215.362C283.556,214.962 283.274,214.726 283.225,214.726C283.221,214.726 283.217,214.727 283.213,214.729L282.819,214.409L282.764,222.261C282.722,224.678 282.701,227.608 282.702,230.947L282.694,232.126L282.568,249.843L262.429,249.843L262.365,213.053L262.307,179.3L262.355,176.337L262.71,175.959L265.26,174.054C266.888,172.838 268.93,171.325 269.8,170.692C270.669,170.059 271.972,169.077 272.695,168.511C272.817,168.415 272.947,168.315 273.082,168.213C273.27,168.073 273.452,167.936 273.619,167.808C274.121,167.434 274.614,167.079 274.92,166.875C275.023,166.806 275.137,166.729 275.269,166.639C275.383,166.605 275.62,166.448 275.834,166.261C275.861,166.238 275.891,166.212 275.925,166.184C276.701,165.642 277.92,164.778 280.042,163.267C280.197,163.169 280.422,163.009 280.67,162.82L281.825,161.998C281.852,161.979 281.878,161.962 281.903,161.948C282.004,161.921 282.093,161.929 282.173,161.984C282.541,162.483 282.595,165.567 282.694,177.762L282.819,193.369L283.529,192.405C283.919,191.875 285.028,190.365 285.994,189.05C286.959,187.734 288.254,186.011 288.871,185.22C289.489,184.428 289.994,183.732 289.994,183.672C289.994,183.613 291.211,181.923 292.7,179.917C296.754,174.453 297.91,172.864 298.049,172.567C298.177,172.293 301.299,168.038 302.614,166.346C303.011,165.835 303.335,165.347 303.335,165.263C303.335,165.25 303.349,165.221 303.375,165.178C303.576,164.906 303.756,164.665 303.902,164.471C304.098,164.211 304.284,163.96 304.448,163.735ZM51.952,173.99C52.099,173.974 52.224,173.984 52.329,174.022C52.701,174.274 52.966,175.35 53.744,178.225C54.101,179.541 54.499,181.013 54.631,181.498C54.762,181.982 54.994,182.889 55.146,183.512C55.298,184.135 55.588,185.211 55.789,185.903C56.631,188.798 56.924,189.873 57.915,193.707C58.487,195.922 59.021,197.904 59.099,198.112C59.241,198.486 59.853,200.725 60.544,203.398C60.741,204.16 61.142,205.632 61.435,206.671C61.728,207.709 62.179,209.352 62.438,210.321C62.696,211.29 63.145,212.933 63.435,213.971C63.725,215.009 64.248,216.935 64.598,218.25C64.948,219.566 65.436,221.378 65.683,222.278C66.997,227.058 67.58,229.209 68.243,231.718C68.646,233.241 69.194,235.28 69.461,236.249C70.058,238.414 71.399,243.523 71.906,245.563C72.112,246.394 72.386,247.3 72.514,247.577C72.54,247.634 72.567,247.705 72.592,247.786L72.61,247.854L72.704,248.223C72.755,248.466 72.795,248.73 72.812,248.962L72.867,249.714C72.649,249.768 72.179,249.814 71.525,249.853L63.814,249.913C61.538,249.93 59.405,249.935 57.731,249.927C55.85,249.874 54.422,249.792 53.961,249.682C53.608,249.298 53.238,248.183 52.294,244.934C52.154,244.449 51.953,243.826 51.85,243.549C51.746,243.272 51.462,242.31 51.219,241.41C50.976,240.51 50.615,239.207 50.417,238.515C50.218,237.823 49.843,236.463 49.582,235.494C49.322,234.525 48.87,232.939 48.578,231.97C48.286,231.001 47.82,229.416 47.543,228.449C47.266,227.482 47.007,226.659 46.968,226.62C46.94,226.592 46.601,226.642 46.091,226.742C45.931,226.771 45.748,226.808 45.548,226.852C44.515,227.07 43.114,227.401 42.04,227.694C38.783,228.583 35.026,230.169 33.154,231.445C32.629,231.803 32.128,232.096 32.041,232.096C31.888,232.096 29.384,234.214 28.321,235.242C27.38,236.153 24.67,239.309 24.67,239.495C24.67,239.507 24.665,239.525 24.656,239.548C24.288,240.034 23.951,240.513 23.653,240.977C22.802,242.128 22.01,243.559 20.607,246.444C19.9,247.898 19.238,249.257 19.136,249.465C18.912,249.921 1.615,250.174 1.169,249.727C0.949,249.508 1.786,246.851 2.535,245.391C2.655,245.158 2.993,244.252 3.288,243.377C3.708,242.131 6.327,235.274 7.55,232.222C7.661,231.945 7.996,231.095 8.295,230.334C8.593,229.572 8.937,228.722 9.058,228.446C9.18,228.169 9.413,227.506 9.576,226.974C9.739,226.441 10.029,225.705 10.221,225.338C10.413,224.97 10.57,224.537 10.571,224.375C10.571,224.329 10.584,224.26 10.608,224.176L10.716,223.898L10.897,223.439L10.931,223.368C11.128,222.976 11.593,221.863 11.964,220.894C12.335,219.924 12.789,218.792 12.972,218.376C13.156,217.961 13.551,216.941 13.85,216.111C14.435,214.489 14.986,213.042 15.481,211.831C15.651,211.416 16.21,209.943 16.724,208.559C17.239,207.174 17.751,205.815 17.864,205.538C17.977,205.261 18.434,204.128 18.88,203.021C19.326,201.913 19.79,200.78 19.913,200.503C20.035,200.227 20.593,198.754 21.151,197.231C21.71,195.708 22.271,194.235 22.398,193.958C22.649,193.41 23.278,191.789 24.155,189.427L24.476,188.56L24.56,188.341C24.59,188.26 24.619,188.178 24.649,188.097L24.666,188.049C25.614,185.516 25.717,185.595 27.592,184.642C29.31,183.768 30.303,183.317 32.851,182.252C33.128,182.137 33.977,181.761 34.739,181.418C35.5,181.074 37.199,180.326 38.515,179.754C39.83,179.183 41.325,178.492 41.837,178.219C42.349,177.945 42.885,177.722 43.029,177.722C43.172,177.722 43.977,177.389 44.818,176.982C45.658,176.575 46.764,176.105 47.276,175.938C47.788,175.771 48.601,175.424 49.084,175.168C49.566,174.911 50.091,174.701 50.251,174.701C50.41,174.701 50.865,174.532 51.261,174.325C51.551,174.174 51.771,174.046 51.952,173.99ZM149.518,159.318L150.22,159.429C150.739,159.511 152.467,159.933 154.059,160.367C155.651,160.801 157.69,161.352 158.59,161.592C159.49,161.832 160.396,162.098 160.604,162.183C161.081,162.379 163.647,163.065 165.135,163.394C165.224,163.414 165.315,163.435 165.406,163.458L166.15,163.67L166.195,163.682C166.411,163.752 166.585,163.819 166.678,163.87C166.903,163.993 167.526,164.174 168.062,164.271C168.355,164.324 168.617,164.374 168.855,164.428C169.482,164.612 169.948,164.785 170.334,165.007C171.117,165.545 171.757,166.536 173.065,168.698C173.203,168.927 174.081,170.256 175.016,171.651C175.95,173.047 176.715,174.234 176.715,174.29C176.715,174.346 177.151,175.056 177.685,175.868C178.218,176.68 178.923,177.854 179.25,178.477C179.578,179.1 179.977,179.78 180.138,179.987C180.298,180.195 181.239,181.838 182.227,183.638C183.005,185.053 183.738,186.371 184.081,186.97C184.79,188.31 185.472,189.621 186.124,190.898C187.808,194.318 190.102,199.155 190.943,201.133C191.325,202.033 191.859,203.279 192.129,203.902C192.816,205.488 192.964,205.857 193.55,207.426C193.835,208.188 194.383,209.65 194.768,210.677L195.469,212.543L195.6,194.189C195.62,191.481 195.64,188.904 195.66,186.58C195.724,180.808 195.804,176.553 195.87,175.726C196.271,175.614 197.882,176.097 202.653,177.73C205.901,178.842 209.947,180.221 211.643,180.793L212.316,181.02C212.495,181.1 212.779,181.195 213.067,181.274L214.379,181.716C214.528,181.964 214.641,182.424 214.725,183.294L214.6,249.843L188.441,249.843L188.258,249.087C188.157,248.672 187.848,247.426 187.572,246.318C187.296,245.211 186.892,243.568 186.675,242.668C186.457,241.768 186.063,240.296 185.798,239.396C185.533,238.496 184.949,236.4 184.499,234.739C184.049,233.077 183.605,231.605 183.511,231.466C183.417,231.328 182.97,230.025 182.517,228.571C182.064,227.118 181.536,225.571 181.344,225.135L181.311,225.059C181.202,224.741 181.095,224.434 180.993,224.14L180.992,224.128C180.988,223.874 179.103,218.729 178.611,217.631C178.422,217.21 177.815,215.79 177.262,214.475C176.38,212.377 173.743,206.732 172.089,203.398C171.344,201.898 170.846,201.133 170.614,201.133C170.578,201.133 170.541,202.427 170.507,204.669C170.436,207.79 170.396,213.476 170.368,222.979C170.365,223.805 170.362,224.641 170.36,225.488L170.296,249.843L149.402,249.843L149.339,204.561L149.33,198.504C149.306,176.644 149.327,159.581 149.382,159.437C149.403,159.382 149.442,159.341 149.518,159.318ZM247.164,180.61C247.567,180.589 247.939,180.58 248.206,180.587L249.339,180.617L249.339,249.843L228.788,249.843C228.118,249.8 227.826,249.739 227.774,249.657C227.739,249.602 227.709,248.46 227.684,246.51L227.627,216.502C227.603,204.079 227.616,194.662 227.663,189.008L227.677,187.538C227.683,187.032 227.689,186.525 227.695,186.019L227.702,185.528C227.724,184.221 227.749,183.392 227.779,183.07C227.78,183.061 227.782,183.055 227.784,183.052C227.919,182.839 228.902,182.637 230.486,182.495C231.856,182.372 233.996,182.151 235.242,182.003C238.766,181.584 241.297,181.308 244.281,181.016C245.776,180.87 247.064,180.689 247.164,180.61ZM44.629,212.855C44.555,212.037 44.289,210.712 43.821,208.559C43.369,206.482 42.837,203.933 42.637,202.895C42.437,201.857 42.168,200.667 42.038,200.252C41.785,199.443 41.054,195.998 40.849,194.651C40.622,193.157 40.553,193.214 38.265,198.43C38.085,198.811 37.931,199.163 37.843,199.397C37.121,201.062 36.018,203.673 35.25,205.538C34.394,207.615 33.317,210.22 32.856,211.328C30.913,215.999 30.628,216.703 29.954,218.502C29.687,219.214 29.417,219.929 29.243,220.385C29.182,220.518 29.138,220.626 29.119,220.707L29.074,220.823C28.867,221.342 29.237,221.165 32.096,219.378C35.179,217.45 40.352,215.133 42.249,214.83C42.826,214.737 43.298,214.571 43.298,214.459C43.298,214.42 43.335,214.38 43.399,214.342L43.566,214.287L43.799,214.207C43.86,214.194 43.924,214.184 43.99,214.177C44.252,214.147 44.438,214.075 44.544,213.873C44.762,213.724 44.784,213.58 44.738,213.368L44.629,212.855ZM375.592,213.504C375.626,213.154 375.473,212.379 375.188,211.076C374.976,210.107 374.649,208.578 374.461,207.678C373.31,202.157 372.737,199.501 372.287,197.609C372.007,196.432 371.68,195.016 371.558,194.462C371.437,193.908 371.213,192.945 371.061,192.322C370.909,191.699 370.622,190.396 370.425,189.427C370.227,188.458 369.828,186.646 369.538,185.4C369.249,184.154 368.802,182.115 368.546,180.868C367.641,176.458 366.645,171.978 366.199,170.313C365.917,169.262 365.266,168.407 365.259,169.079C365.256,169.321 364.362,174.204 364.114,175.33C363.324,178.918 358.868,201.484 358.795,202.266L358.702,203.272L362.422,205.102C366.555,207.135 368.022,207.942 369.209,208.836C369.65,209.168 370.083,209.44 370.171,209.44C370.405,209.44 372.733,211.364 374.261,212.82C374.945,213.472 375.337,213.809 375.503,213.71L375.649,213.845L375.592,213.504ZM98.048,196.35L98.049,196.476L98.804,196.394C99.775,196.289 102.045,195.677 103.335,195.173C105.263,194.419 105.604,194.276 106.104,194.004C106.381,193.854 106.948,193.551 107.363,193.33C117.587,187.898 119.418,176.428 110.395,174.335C107.277,173.612 101.687,174.502 98.361,176.251C98.33,176.267 98.301,176.286 98.274,176.311L98.049,176.388L98.044,177.116C97.941,178.182 97.945,180.62 97.983,186.423L97.917,196.35L98.048,196.35Z" style="fill:rgb(36,44,44);"/>
                        <path id="path1" d="M285.365,1.465C285.295,1.578 283.985,1.825 282.455,2.012C280.925,2.2 279.673,2.423 279.673,2.508C279.673,2.594 278.682,2.813 277.47,2.997C276.259,3.18 275.154,3.416 275.016,3.52C274.877,3.624 273.971,3.853 273.002,4.028C272.033,4.203 271.126,4.433 270.988,4.541C270.85,4.648 270,4.876 269.1,5.047C268.2,5.218 267.351,5.445 267.212,5.552C267.074,5.658 266.224,5.935 265.324,6.167C264.424,6.4 263.575,6.677 263.436,6.783C263.298,6.889 262.62,7.114 261.929,7.282C261.239,7.451 260.559,7.678 260.419,7.786C260.278,7.894 259.599,8.121 258.908,8.289C258.218,8.458 257.538,8.681 257.398,8.784C257.258,8.887 256.633,9.126 256.01,9.314C255.387,9.502 254.764,9.735 254.626,9.83C254.487,9.926 253.921,10.146 253.367,10.321C252.813,10.495 252.247,10.725 252.108,10.831C251.97,10.937 251.375,11.167 250.787,11.342C250.198,11.516 249.717,11.755 249.717,11.871C249.717,11.988 249.526,12.083 249.293,12.083C248.867,12.083 247.644,12.589 245.312,13.729C244.619,14.067 243.741,14.414 243.361,14.5C242.98,14.585 242.668,14.742 242.668,14.849C242.668,14.956 242.017,15.369 241.221,15.766C239.793,16.478 238.3,17.371 237.707,17.869C237.54,18.01 237.319,18.125 237.217,18.125C236.681,18.125 233.239,20.726 231.575,22.388C229.616,24.344 227.631,27.767 227.183,29.956C227.084,30.441 226.91,30.954 226.795,31.096C226.681,31.239 226.455,32.372 226.292,33.613C226.129,34.855 225.867,36.145 225.71,36.478C225.38,37.181 225.445,55.818 225.78,56.254C225.89,56.397 226.12,58.486 226.292,60.896C226.463,63.307 226.699,65.459 226.816,65.679C226.932,65.899 227.166,67.637 227.334,69.541C227.503,71.444 227.72,73.002 227.817,73.002C227.913,73.002 228.139,74.39 228.318,76.086C228.497,77.782 228.725,79.283 228.826,79.421C228.926,79.559 229.151,80.806 229.327,82.19C229.502,83.575 229.726,84.821 229.825,84.959C229.924,85.098 230.153,86.372 230.336,87.791C230.518,89.21 230.739,90.371 230.826,90.371C230.914,90.371 231.136,91.532 231.319,92.952C231.502,94.371 231.736,95.645 231.838,95.784C231.94,95.922 232.166,97.111 232.339,98.427C232.512,99.742 232.739,100.931 232.842,101.07C232.946,101.208 233.173,102.398 233.346,103.713C233.519,105.028 233.742,106.218 233.841,106.356C233.941,106.495 234.167,107.684 234.344,108.999C234.521,110.315 234.758,111.504 234.869,111.643C234.981,111.781 235.213,113.055 235.385,114.475C235.557,115.894 235.794,117.055 235.911,117.055C236.028,117.055 236.123,117.811 236.123,118.736C236.123,122.209 236.512,122.495 240.858,122.213C244.996,121.945 244.589,122.995 244.808,112.034C244.91,106.904 245.094,102.706 245.216,102.706C245.338,102.706 245.437,101.545 245.437,100.126C245.437,95.641 245.956,84.225 246.185,83.7C246.305,83.424 246.533,81.101 246.692,78.54C246.851,75.979 247.077,73.656 247.195,73.379C247.313,73.103 247.546,71.46 247.711,69.729C247.877,67.999 248.096,66.469 248.197,66.331C248.298,66.193 248.526,64.89 248.702,63.436C248.879,61.982 249.111,60.68 249.218,60.541C249.324,60.403 249.559,59.242 249.738,57.961C249.918,56.68 250.138,55.632 250.228,55.632C250.318,55.632 250.536,54.811 250.713,53.807C250.889,52.804 251.117,51.869 251.219,51.731C251.321,51.592 251.602,50.459 251.843,49.213C252.084,47.967 252.37,46.834 252.477,46.696C252.585,46.558 252.824,45.821 253.009,45.06C253.193,44.298 253.478,43.449 253.64,43.172C253.803,42.895 254.01,42.329 254.101,41.913C254.191,41.498 254.42,40.818 254.608,40.403C257.357,34.343 258.571,31.964 259.98,29.877C260.427,29.214 260.793,28.609 260.793,28.532C260.793,28.454 261.507,27.525 262.381,26.467C263.254,25.409 264.04,24.355 264.127,24.125C264.214,23.894 264.562,23.554 264.9,23.369C265.239,23.185 266.288,22.382 267.231,21.586C268.174,20.79 269.085,20.138 269.254,20.138C269.423,20.138 269.599,20.04 269.645,19.919C269.81,19.488 273.724,17.637 275.112,17.333C275.89,17.162 276.592,16.926 276.673,16.808C276.865,16.529 282.601,16.241 283.72,16.455C284.852,16.672 285.602,17.836 286,19.994C286.168,20.904 286.388,21.649 286.489,21.649C286.591,21.649 286.752,22.244 286.847,22.97C286.942,23.697 287.17,24.602 287.354,24.982C287.537,25.361 287.764,26.041 287.858,26.492C288.663,30.353 293.979,38.263 295.769,38.263C295.915,38.263 296.035,38.366 296.035,38.492C296.035,39.841 304.335,40.968 304.541,39.648C304.585,39.371 304.723,38.918 304.849,38.641C305.13,38.024 305.601,32.42 305.601,29.691C305.601,28.525 305.706,27.69 305.853,27.69C306.01,27.69 306.104,26.143 306.104,23.552C306.104,21.064 306.004,19.351 305.853,19.257C305.714,19.172 305.601,18.649 305.601,18.095C305.601,16.598 305.112,13.574 304.73,12.712C304.546,12.297 304.318,11.589 304.223,11.139C304.128,10.689 303.961,10.321 303.85,10.321C303.74,10.321 303.585,9.995 303.505,9.596C303.425,9.197 303.185,8.696 302.97,8.481C302.756,8.267 302.58,7.972 302.58,7.826C302.58,7.407 299.324,4.067 298.732,3.879C298.439,3.786 298.038,3.549 297.842,3.353C297.645,3.157 297.159,2.931 296.76,2.851C296.361,2.771 296.035,2.615 296.035,2.504C296.035,2.392 295.384,2.176 294.588,2.023C293.792,1.87 292.944,1.636 292.703,1.502C292.174,1.207 285.545,1.174 285.365,1.465M191.567,3.183C190.944,3.239 190.208,3.383 189.931,3.504C189.654,3.625 188.357,3.854 187.048,4.013C185.739,4.172 184.55,4.395 184.405,4.509C184.26,4.623 183.178,4.859 182.001,5.035C180.824,5.21 179.745,5.444 179.603,5.556C179.461,5.667 178.498,5.942 177.463,6.167C176.429,6.391 175.356,6.677 175.079,6.801C174.802,6.926 174.065,7.157 173.442,7.314C172.819,7.472 172.196,7.689 172.058,7.795C171.919,7.902 171.376,8.067 170.85,8.162C169.361,8.431 166.167,10.291 165.033,11.55C164.77,11.843 164.437,12.083 164.294,12.083C164.013,12.083 163.069,12.947 160.003,16.013C157.149,18.868 156.073,20.02 156.073,20.224C156.073,20.322 154.969,21.651 153.619,23.177C152.269,24.703 151.118,26.087 151.062,26.254C151.006,26.421 150.298,27.37 149.489,28.363C148.68,29.356 148.018,30.243 148.018,30.335C148.018,30.427 147.508,31.151 146.885,31.944C146.262,32.737 145.752,33.47 145.752,33.574C145.752,33.677 145.356,34.281 144.871,34.916C144.386,35.551 143.99,36.168 143.99,36.288C143.99,36.407 143.641,36.986 143.214,37.573C142.787,38.16 142.28,38.98 142.086,39.396C141.893,39.811 141.626,40.321 141.493,40.529C141.065,41.197 139.459,44.76 139.459,45.04C139.459,45.189 139.359,45.312 139.237,45.312C139.115,45.312 138.88,45.848 138.715,46.504C138.55,47.16 138.32,47.811 138.205,47.951C137.954,48.256 137.445,50.903 137.445,51.903L137.445,52.612L139.446,52.612C141.426,52.612 143.644,52.287 144.619,51.855C144.896,51.733 145.774,51.495 146.57,51.327C147.366,51.159 148.018,50.939 148.018,50.838C148.018,50.737 148.405,50.581 148.878,50.492C149.352,50.404 150.91,49.733 152.34,49.003C155.859,47.206 155.943,47.154 158.02,45.502C159.022,44.705 159.929,44.053 160.037,44.053C160.296,44.053 167.653,36.679 167.653,36.419C167.653,35.558 172.907,30.459 173.793,30.46C174.368,30.461 175.423,32.219 175.983,34.11C176.147,34.663 176.374,35.343 176.488,35.62C176.601,35.897 176.823,36.633 176.981,37.256C177.139,37.879 177.355,38.502 177.462,38.641C177.568,38.779 177.797,39.657 177.969,40.592C178.141,41.526 178.362,42.291 178.46,42.291C178.558,42.291 178.785,43.197 178.965,44.305C179.145,45.412 179.379,46.318 179.485,46.318C179.592,46.318 179.82,47.083 179.992,48.018C180.164,48.952 180.387,49.83 180.486,49.969C180.586,50.107 180.814,50.957 180.994,51.857C181.174,52.756 181.399,53.606 181.493,53.744C181.588,53.883 181.816,54.676 182.001,55.507C182.186,56.337 182.422,57.13 182.525,57.269C182.628,57.407 182.858,58.228 183.036,59.094C183.215,59.959 183.436,60.667 183.528,60.667C183.619,60.667 183.84,61.375 184.018,62.24C184.196,63.106 184.43,63.929 184.538,64.069C184.645,64.209 184.871,64.889 185.04,65.579C185.208,66.27 185.435,66.949 185.543,67.09C185.651,67.23 185.878,67.91 186.047,68.6C186.215,69.29 186.442,69.97 186.55,70.11C186.658,70.251 186.885,70.93 187.054,71.621C187.222,72.311 187.449,72.991 187.557,73.131C187.665,73.271 187.89,73.951 188.056,74.641C188.222,75.332 188.493,76.123 188.66,76.4C188.826,76.677 189.11,77.442 189.29,78.099C189.471,78.757 189.703,79.295 189.806,79.295C189.909,79.295 190.062,79.635 190.145,80.05C190.228,80.466 190.517,81.291 190.787,81.884C191.057,82.477 191.356,83.27 191.45,83.646C191.544,84.022 191.723,84.33 191.846,84.33C191.969,84.33 192.07,84.521 192.07,84.754C192.07,84.987 192.297,85.667 192.574,86.264C193.365,87.972 193.99,89.415 194.352,90.371C194.535,90.856 194.755,91.309 194.84,91.378C194.924,91.447 195.151,91.901 195.343,92.385C195.535,92.87 195.755,93.323 195.832,93.392C196.07,93.606 197.609,96.857 197.609,97.146C197.609,97.297 197.72,97.42 197.857,97.42C197.994,97.42 198.275,97.788 198.482,98.238C198.689,98.688 199.195,99.622 199.608,100.315C200.02,101.007 200.5,101.857 200.675,102.203C200.85,102.549 201.421,103.409 201.944,104.113C202.467,104.818 202.895,105.476 202.895,105.574C202.895,105.673 203.518,106.535 204.279,107.489C205.041,108.443 205.664,109.299 205.664,109.391C205.664,109.576 205.66,109.572 208.988,113.272C211.7,116.287 216.64,120.831 217.207,120.831C217.323,120.831 217.604,121.037 217.831,121.288C218.059,121.54 219.578,122.418 221.206,123.239C222.834,124.061 224.223,124.801 224.292,124.885C224.361,124.969 225.041,125.183 225.802,125.362C226.564,125.541 227.27,125.812 227.372,125.965C227.821,126.64 227.084,121.883 226.557,120.705C226.433,120.428 226.205,119.522 226.05,118.691C225.895,117.86 225.617,116.841 225.434,116.425C225.25,116.01 225.018,115.16 224.919,114.537C224.82,113.914 224.649,113.291 224.539,113.153C224.429,113.014 224.199,112.165 224.028,111.265C223.857,110.365 223.63,109.515 223.524,109.377C223.419,109.239 223.19,108.389 223.017,107.489C222.843,106.589 222.621,105.796 222.523,105.727C222.426,105.658 222.21,104.81 222.043,103.844C221.876,102.877 221.645,101.971 221.53,101.83C221.415,101.689 221.185,100.667 221.02,99.559C220.854,98.452 220.633,97.432 220.528,97.294C220.424,97.155 220.192,96.136 220.013,95.028C219.834,93.921 219.604,92.901 219.502,92.763C219.4,92.624 219.177,91.492 219.006,90.245C218.834,88.999 218.609,87.867 218.505,87.728C218.402,87.59 218.176,86.514 218.005,85.337C217.833,84.16 217.596,82.97 217.477,82.694C217.358,82.417 217.13,81.227 216.969,80.05C216.808,78.874 216.594,77.797 216.492,77.659C216.391,77.52 216.166,76.337 215.992,75.029C215.818,73.721 215.582,72.475 215.468,72.26C215.354,72.045 215.076,70.396 214.851,68.597C214.625,66.797 214.342,65.098 214.222,64.821C214.102,64.544 213.869,63.128 213.705,61.674C213.541,60.22 213.323,58.918 213.221,58.779C213.119,58.641 212.893,57.281 212.72,55.758C212.546,54.235 212.32,52.876 212.217,52.738C212.114,52.599 211.884,51.24 211.705,49.717C211.527,48.194 211.296,46.834 211.192,46.696C211.088,46.558 210.866,45.368 210.699,44.053C210.531,42.738 210.31,41.548 210.207,41.41C210.104,41.271 209.876,39.969 209.699,38.515C209.523,37.061 209.294,35.758 209.191,35.62C209.088,35.481 208.86,34.235 208.685,32.851C208.509,31.466 208.285,30.22 208.187,30.082C208.088,29.943 207.863,28.811 207.687,27.565C207.51,26.318 207.286,25.186 207.188,25.047C207.09,24.909 206.865,23.719 206.688,22.404C206.511,21.089 206.282,19.899 206.18,19.761C206.078,19.622 205.851,18.517 205.677,17.305C205.502,16.093 205.274,15.048 205.17,14.984C205.066,14.92 204.83,13.844 204.644,12.594C204.459,11.344 204.23,10.321 204.135,10.321C204.04,10.321 203.81,9.386 203.625,8.244C203.291,6.18 201.973,4.031 201.038,4.026C200.882,4.025 200.415,3.837 200,3.609C199.237,3.188 194.292,2.939 191.567,3.183M339.037,27.483C337.71,28.175 335.053,31.483 335.053,32.443C335.053,32.598 334.954,32.725 334.833,32.725C334.712,32.725 334.185,33.546 333.661,34.55C333.137,35.554 332.206,37.338 331.592,38.515C330.978,39.692 330.205,41.108 329.875,41.661C329.544,42.215 329.132,42.952 328.959,43.298C328.786,43.644 328.501,44.018 328.325,44.128C328.149,44.239 328.005,44.447 328.005,44.591C328.005,44.735 327.325,45.692 326.495,46.716C325.664,47.741 324.984,48.667 324.984,48.774C324.984,49.089 318.838,55.129 318.517,55.129C318.356,55.129 318.001,55.412 317.729,55.758C317.457,56.104 317.148,56.388 317.042,56.388C316.937,56.388 316.479,56.671 316.025,57.017C315.572,57.363 315.085,57.646 314.944,57.646C314.804,57.646 314.598,57.796 314.487,57.98C314.376,58.163 314.116,58.387 313.908,58.478C313.7,58.568 312.964,58.984 312.272,59.402C311.58,59.82 310.164,60.566 309.125,61.06C308.087,61.555 306.954,62.109 306.608,62.291C306.262,62.474 305.61,62.702 305.16,62.798C304.711,62.894 304.342,63.061 304.342,63.17C304.342,63.279 303.663,63.512 302.832,63.688C302.001,63.864 301.322,64.096 301.322,64.203C301.322,64.31 300.5,64.539 299.497,64.712C298.493,64.885 297.558,65.112 297.42,65.216C297.281,65.32 296.205,65.543 295.028,65.711C293.851,65.879 292.775,66.103 292.637,66.208C292.498,66.313 291.536,66.538 290.497,66.709C289.459,66.879 288.496,67.103 288.357,67.208C288.219,67.312 287.313,67.541 286.344,67.716C285.374,67.89 284.468,68.114 284.33,68.213C284.191,68.311 283.342,68.585 282.442,68.822C280.521,69.326 280.582,69.301 277.093,70.989C275.604,71.709 274.386,72.4 274.386,72.524C274.386,72.648 274.241,72.75 274.062,72.75C273.884,72.75 273.346,73.085 272.867,73.495C272.387,73.905 271.905,74.245 271.795,74.25C271.562,74.262 267.59,78.209 267.59,78.428C267.59,78.509 267.144,79.106 266.599,79.753C266.054,80.401 265.48,81.215 265.323,81.561C265.166,81.907 264.708,82.756 264.305,83.449C263.902,84.141 263.441,84.991 263.281,85.337C262.559,86.893 261.935,88.296 261.629,89.05C261.446,89.5 261.133,90.236 260.933,90.686C260.733,91.136 260.375,92.24 260.138,93.14C259.901,94.04 259.625,94.89 259.524,95.028C259.424,95.167 259.212,95.895 259.053,96.647C258.895,97.399 258.671,98.136 258.556,98.284C258.442,98.432 258.208,99.289 258.036,100.189C257.865,101.089 257.635,101.938 257.526,102.077C257.417,102.215 257.183,103.178 257.006,104.216C256.83,105.255 256.603,106.218 256.503,106.356C256.402,106.495 256.176,107.458 255.999,108.496C255.823,109.534 255.593,110.497 255.489,110.636C255.385,110.774 255.162,111.85 254.994,113.027C254.825,114.204 254.599,115.28 254.49,115.419C254.381,115.557 254.148,116.633 253.972,117.81C253.795,118.987 253.576,120.006 253.484,120.076C253.166,120.314 253.06,121.583 253.339,121.81C253.493,121.934 254.695,122.174 256.01,122.341C257.325,122.509 258.515,122.734 258.653,122.841C258.792,122.949 259.896,123.175 261.108,123.344C262.319,123.513 263.31,123.753 263.31,123.877C263.31,124.002 263.593,124.103 263.94,124.103C264.395,124.103 264.569,123.968 264.569,123.615C264.569,123.346 264.675,123.061 264.804,122.981C264.933,122.901 265.172,122.186 265.334,121.393C265.497,120.599 265.717,119.836 265.822,119.698C265.927,119.559 266.094,118.993 266.193,118.439C266.292,117.885 266.527,117.093 266.715,116.677C266.903,116.262 267.188,115.412 267.348,114.789C267.508,114.166 267.724,113.543 267.827,113.405C267.93,113.266 268.166,112.587 268.35,111.894C268.534,111.202 268.823,110.409 268.993,110.132C269.163,109.855 269.379,109.261 269.473,108.811C269.567,108.361 269.736,107.992 269.848,107.992C269.96,107.992 270.129,107.681 270.223,107.3C270.428,106.474 272.674,101.981 274.031,99.685C275.101,97.876 281.617,91.126 282.295,91.126C282.514,91.126 282.694,91.023 282.694,90.895C282.694,90.768 283.084,90.457 283.561,90.203C285.386,89.233 287.651,88.121 288.861,87.601C289.553,87.303 290.403,86.912 290.749,86.731C291.095,86.55 291.775,86.319 292.259,86.218C292.744,86.117 293.266,85.933 293.42,85.81C293.573,85.686 294.706,85.4 295.937,85.174C297.168,84.947 298.232,84.683 298.301,84.587C298.37,84.49 299.503,84.27 300.818,84.097C302.133,83.925 303.436,83.686 303.713,83.566C304.292,83.317 310.184,82.819 312.563,82.819C313.445,82.819 314.363,82.715 314.604,82.587C314.844,82.46 316.033,82.221 317.245,82.058C318.457,81.894 319.504,81.671 319.571,81.563C319.638,81.455 320.093,81.291 320.582,81.199C321.071,81.107 322.233,80.626 323.165,80.13C324.096,79.633 325.112,79.101 325.423,78.946C325.733,78.792 325.988,78.581 325.989,78.477C325.99,78.373 326.111,78.288 326.258,78.288C326.882,78.288 333.795,72.156 333.795,71.602C333.795,71.529 334.333,70.804 334.991,69.991C337.088,67.399 339.559,63.171 341.104,59.534C341.339,58.98 341.708,58.131 341.923,57.646C342.139,57.162 342.396,56.425 342.495,56.01C342.594,55.595 342.753,55.142 342.848,55.003C342.943,54.865 343.161,54.242 343.332,53.619C343.504,52.996 343.795,52.146 343.98,51.731C344.165,51.315 344.395,50.381 344.491,49.654C344.588,48.927 344.746,48.332 344.844,48.332C345.052,48.332 345.626,44.579 345.626,43.222C345.626,42.71 345.739,42.291 345.878,42.291C346.035,42.291 346.13,40.827 346.13,38.404C346.13,36.084 346.028,34.454 345.878,34.361C345.739,34.276 345.626,33.833 345.626,33.377C345.626,29.252 341.951,25.964 339.037,27.483M104.216,40.504C104.009,40.612 103.272,40.966 102.58,41.29C101.37,41.856 99.434,43.434 99.434,43.855C99.434,43.967 99.065,44.597 98.615,45.255C97.735,46.543 97.151,47.688 96.662,49.087C96.492,49.572 96.209,50.308 96.032,50.724C95.855,51.139 95.629,51.989 95.529,52.612C95.43,53.235 95.265,53.858 95.162,53.996C94.989,54.229 94.488,58.122 94.313,60.601C94.271,61.188 94.161,61.745 94.066,61.839C93.843,62.062 93.843,67.328 94.066,67.551C94.161,67.645 94.271,68.202 94.313,68.789C94.498,71.404 94.994,75.016 95.168,75.016C95.273,75.016 95.438,75.61 95.534,76.337C95.63,77.064 95.858,77.999 96.039,78.414C96.221,78.829 96.503,79.622 96.666,80.176C97.104,81.661 98.914,85.325 99.73,86.38C100.121,86.884 100.441,87.417 100.441,87.564C100.441,87.979 105.911,93.392 106.331,93.392C106.433,93.392 106.887,93.675 107.341,94.021C107.795,94.368 108.297,94.651 108.457,94.651C108.617,94.651 108.748,94.741 108.748,94.852C108.748,94.963 109.172,95.198 109.692,95.376C110.211,95.554 110.975,95.848 111.391,96.03C111.806,96.212 112.656,96.442 113.279,96.541C113.902,96.64 114.561,96.842 114.743,96.99C114.952,97.158 118.174,97.327 123.428,97.445C132.886,97.657 137.402,97.902 137.595,98.213C137.667,98.331 138.238,98.427 138.864,98.427C140.422,98.427 144.842,98.957 144.997,99.163C145.066,99.255 146.139,99.474 147.381,99.649C148.623,99.824 149.756,100.057 149.898,100.166C150.041,100.276 150.894,100.512 151.794,100.692C152.694,100.872 153.543,101.098 153.682,101.194C153.82,101.291 154.5,101.522 155.192,101.709C155.884,101.896 156.734,102.196 157.08,102.376C157.426,102.556 158.077,102.773 158.527,102.859C158.977,102.944 159.346,103.096 159.346,103.197C159.346,103.298 159.799,103.53 160.352,103.713C160.906,103.896 161.359,104.122 161.359,104.216C161.359,104.311 161.812,104.537 162.366,104.72C162.92,104.903 163.373,105.147 163.373,105.264C163.373,105.38 163.523,105.475 163.706,105.475C163.889,105.475 164.484,105.812 165.028,106.223C165.571,106.635 166.106,106.975 166.216,106.979C166.326,106.982 167.016,107.439 167.749,107.992C168.483,108.546 169.162,108.999 169.26,108.999C169.357,108.999 170.05,109.452 170.799,110.006C171.549,110.56 172.226,111.013 172.304,111.013C172.381,111.013 173.094,111.523 173.888,112.146C174.681,112.769 175.418,113.279 175.525,113.279C175.631,113.279 176.44,113.845 177.32,114.537C178.201,115.23 179.013,115.796 179.124,115.796C179.236,115.796 179.976,116.306 180.769,116.929C181.562,117.552 182.332,118.062 182.481,118.062C182.63,118.062 182.894,118.288 183.067,118.565C183.24,118.842 183.475,119.069 183.589,119.069C183.703,119.069 184.168,119.352 184.622,119.698C185.076,120.044 185.572,120.327 185.726,120.327C185.879,120.327 186.095,120.469 186.205,120.642C186.425,120.985 188.656,122.593 188.913,122.593C189,122.593 189.208,122.707 189.375,122.846C190.066,123.421 192.647,125.288 193.724,125.991C194.359,126.407 195.352,127.056 195.929,127.435C196.507,127.813 197.262,128.264 197.609,128.436C197.955,128.609 198.308,128.847 198.393,128.967C198.551,129.188 199.116,129.537 200.566,130.307C201.016,130.546 201.385,130.834 201.385,130.947C201.385,131.059 201.53,131.152 201.709,131.152C201.887,131.152 202.425,131.487 202.904,131.897C203.384,132.306 203.918,132.646 204.091,132.652C204.264,132.657 204.405,132.753 204.405,132.863C204.405,133.067 205.854,133.669 206.343,133.669C206.631,133.669 206.489,131.468 206.174,131.026C206.075,130.887 205.843,130.208 205.659,129.515C205.475,128.823 205.183,128.03 205.009,127.753C204.836,127.476 204.617,126.825 204.522,126.306C204.427,125.787 204.265,125.362 204.163,125.362C204.06,125.362 203.777,124.626 203.534,123.726C203.29,122.826 203.004,122.089 202.898,122.089C202.793,122.089 202.638,121.748 202.554,121.33C202.471,120.913 202.132,119.978 201.802,119.253C200.386,116.147 200.126,115.539 200.126,115.341C200.126,115.079 197.401,109.742 197.048,109.311C196.736,108.932 196.025,107.678 195.479,106.545C195.262,106.095 194.973,105.727 194.836,105.727C194.7,105.727 194.588,105.596 194.588,105.436C194.588,105.276 194.305,104.774 193.958,104.32C193.612,103.866 193.329,103.375 193.329,103.228C193.329,103.082 193.103,102.821 192.826,102.648C192.549,102.475 192.322,102.203 192.322,102.043C192.322,101.326 184.145,93.392 183.405,93.392C183.326,93.392 182.723,93.01 182.065,92.543C181.407,92.075 180.444,91.543 179.924,91.359C179.405,91.176 178.98,90.953 178.98,90.864C178.98,90.776 178.499,90.551 177.911,90.364C177.322,90.177 176.617,89.876 176.344,89.694C176.071,89.513 175.675,89.364 175.463,89.363C175.252,89.362 174.772,89.201 174.397,89.006C174.022,88.81 173.059,88.509 172.257,88.336C171.455,88.164 170.67,87.925 170.513,87.805C170.355,87.685 169.222,87.456 167.995,87.295C166.768,87.135 165.704,86.917 165.631,86.811C165.361,86.422 158.826,86.092 151.394,86.092C146.582,86.092 143.711,85.999 143.612,85.84C143.527,85.702 143.004,85.588 142.45,85.588C141.158,85.588 137.899,85.09 137.571,84.842C137.432,84.738 136.942,84.581 136.481,84.493C132.502,83.739 127.086,79.705 123.908,75.131C122.946,73.746 120.053,67.803 119.318,65.702C119.148,65.217 118.864,64.481 118.687,64.065C118.51,63.65 118.222,62.659 118.047,61.863C117.873,61.067 117.649,60.415 117.551,60.415C117.452,60.415 117.233,59.707 117.064,58.842C116.894,57.977 116.672,57.155 116.569,57.017C116.467,56.879 116.238,56.086 116.061,55.255C115.885,54.424 115.658,53.631 115.558,53.493C115.458,53.354 115.231,52.561 115.054,51.731C114.878,50.9 114.654,50.107 114.557,49.969C114.46,49.83 114.235,49.123 114.058,48.396C113.769,47.21 113.03,45.559 112.006,43.809C111.342,42.675 109.893,41.356 108.936,41.015C108.417,40.83 107.992,40.589 107.992,40.478C107.992,40.22 104.716,40.243 104.216,40.504M327.753,91.411C326.3,91.53 324.939,91.725 324.729,91.845C324.519,91.965 323.33,92.21 322.086,92.389C320.842,92.569 319.711,92.798 319.572,92.899C319.434,93.001 318.811,93.165 318.188,93.264C317.565,93.363 316.715,93.592 316.3,93.774C315.884,93.955 314.921,94.24 314.16,94.407C313.398,94.574 312.435,94.854 312.02,95.029C311.605,95.204 310.868,95.485 310.384,95.654C307.74,96.574 300.032,100.254 297.168,101.964C296.476,102.377 295.711,102.783 295.469,102.866C295.227,102.949 295.028,103.117 295.028,103.239C295.028,103.361 294.897,103.461 294.737,103.461C294.577,103.461 294.075,103.744 293.621,104.091C293.168,104.437 292.727,104.72 292.643,104.72C292.559,104.72 291.857,105.201 291.083,105.79C290.31,106.378 289.493,106.973 289.269,107.111C289.045,107.25 288.549,107.675 288.167,108.055C287.785,108.436 287.367,108.748 287.238,108.748C286.88,108.748 278.535,116.944 276.857,118.943C276.044,119.912 275.155,120.935 274.882,121.217C274.61,121.499 274.386,121.822 274.386,121.936C274.386,122.05 274.056,122.56 273.653,123.069C271.314,126.022 271.236,126.868 273.131,128.729C273.96,129.542 274.638,130.307 274.638,130.428C274.638,130.549 274.808,130.648 275.016,130.648C275.223,130.648 275.395,130.79 275.397,130.963C275.399,131.136 275.994,131.828 276.719,132.5C277.444,133.172 278.376,134.05 278.792,134.451C279.864,135.486 280.746,135.415 282.219,134.172C282.876,133.619 283.525,133.166 283.662,133.166C283.798,133.166 283.948,133.081 283.994,132.977C284.122,132.689 287.038,130.506 287.539,130.322C287.782,130.233 287.98,130.044 287.98,129.901C287.98,129.758 288.111,129.641 288.271,129.641C288.431,129.641 288.933,129.358 289.387,129.012C289.841,128.666 290.327,128.383 290.468,128.383C290.609,128.383 290.814,128.239 290.925,128.063C291.036,127.887 291.41,127.598 291.756,127.421C292.102,127.244 292.838,126.823 293.392,126.484C293.946,126.146 294.767,125.697 295.217,125.486C295.667,125.276 296.035,125.01 296.035,124.895C296.035,124.781 296.488,124.538 297.042,124.355C297.596,124.172 298.049,123.946 298.049,123.851C298.049,123.757 298.502,123.531 299.056,123.348C299.61,123.165 300.063,122.921 300.063,122.804C300.063,122.688 300.187,122.593 300.339,122.593C300.491,122.593 301.822,122.019 303.297,121.318C307.009,119.553 307.353,119.401 308.496,119.025C309.05,118.843 309.559,118.62 309.629,118.53C309.698,118.439 310.264,118.229 310.887,118.063C311.51,117.897 312.133,117.675 312.272,117.57C312.41,117.465 313.088,117.241 313.779,117.072C314.469,116.904 315.149,116.678 315.289,116.57C315.43,116.463 316.281,116.228 317.181,116.048C318.081,115.868 318.93,115.636 319.069,115.532C319.207,115.429 320.227,115.203 321.334,115.031C322.442,114.858 323.461,114.634 323.6,114.532C323.738,114.431 325.041,114.21 326.495,114.041C327.948,113.873 329.41,113.605 329.742,113.444C330.588,113.037 343.804,113.039 344.644,113.446C344.977,113.608 346.466,113.879 347.955,114.05C349.443,114.221 350.661,114.432 350.661,114.519C350.661,114.606 351.594,114.825 352.735,115.004C353.875,115.184 354.931,115.432 355.08,115.556C355.23,115.68 355.967,115.912 356.719,116.07C357.472,116.229 358.2,116.443 358.339,116.546C358.477,116.649 358.926,116.814 359.337,116.913C359.747,117.011 360.562,117.31 361.148,117.577C361.734,117.843 362.295,118.062 362.395,118.062C362.639,118.062 369.344,121.413 370.925,122.326C372.876,123.452 374.759,124.355 375.156,124.355C375.54,124.355 375.321,122.339 374.872,121.739C374.757,121.585 374.525,120.95 374.356,120.327C374.187,119.704 373.954,118.968 373.839,118.691C373.723,118.414 373.427,117.678 373.182,117.055C372.334,114.907 370.974,112.183 370.542,111.768C370.47,111.699 370.271,111.359 370.1,111.013C369.492,109.785 368.713,108.607 367.749,107.454C367.211,106.812 366.772,106.205 366.772,106.106C366.772,105.876 360.572,99.685 360.342,99.685C360.248,99.685 359.645,99.249 359.003,98.716C357.925,97.822 357.417,97.5 355.695,96.619C355.349,96.442 355.009,96.238 354.94,96.166C354.704,95.92 351.46,94.399 351.172,94.399C351.014,94.399 350.381,94.17 349.766,93.889C349.15,93.609 348.279,93.31 347.829,93.224C347.379,93.139 346.897,92.983 346.759,92.877C346.621,92.771 345.771,92.551 344.871,92.388C343.971,92.225 343.008,91.992 342.731,91.871C341.24,91.218 333.178,90.97 327.753,91.411M102.58,110.167C101.334,110.219 100.088,110.363 99.811,110.486C99.534,110.61 97.673,110.838 95.675,110.995C93.677,111.151 91.921,111.369 91.773,111.48C91.625,111.591 90.428,111.826 89.113,112.003C87.797,112.18 86.608,112.415 86.469,112.525C86.331,112.635 85.34,112.872 84.267,113.051C83.194,113.23 82.316,113.455 82.316,113.551C82.316,113.647 81.578,113.864 80.677,114.035C79.775,114.205 78.98,114.436 78.91,114.549C78.84,114.662 78.162,114.894 77.403,115.064C76.644,115.234 76.023,115.455 76.023,115.556C76.023,115.657 75.598,115.82 75.079,115.917C74.559,116.014 73.851,116.243 73.505,116.426C73.159,116.609 72.48,116.895 71.995,117.061C69.709,117.847 64.032,120.685 61.674,122.22C61.051,122.626 60.263,123.107 59.924,123.29C59.584,123.473 58.829,124.014 58.245,124.492C57.661,124.971 57.102,125.362 57.002,125.362C56.512,125.362 47.588,133.311 47.581,133.754C47.579,133.87 46.785,134.833 45.816,135.894C44.847,136.955 44.054,137.937 44.054,138.077C44.053,138.216 43.826,138.472 43.549,138.645C43.272,138.818 43.046,139.081 43.046,139.23C43.046,139.378 42.655,139.977 42.177,140.561C41.698,141.144 41.157,141.9 40.974,142.24C40.791,142.579 40.31,143.367 39.904,143.99C39.499,144.613 38.986,145.463 38.766,145.878C38.156,147.025 37.649,147.878 37.494,148.018C37.416,148.087 37.203,148.54 37.02,149.025C36.569,150.216 35.779,152.033 35.378,152.801C35.197,153.147 34.97,153.798 34.874,154.248C34.778,154.698 34.61,155.066 34.501,155.066C34.393,155.066 34.16,155.746 33.984,156.576C33.807,157.407 33.565,158.087 33.446,158.087C33.176,158.087 33.155,159.774 33.423,159.94C33.707,160.115 35.695,159.106 37.207,158.021C37.927,157.503 38.577,157.08 38.652,157.08C38.727,157.08 39.401,156.627 40.151,156.073C40.901,155.519 41.616,155.066 41.74,155.066C41.865,155.066 42.486,154.67 43.121,154.185C43.755,153.7 44.346,153.304 44.433,153.304C44.52,153.304 45.085,152.964 45.689,152.549C46.293,152.133 46.908,151.794 47.056,151.794C47.204,151.794 47.325,151.68 47.325,151.542C47.325,151.403 47.427,151.29 47.551,151.29C47.676,151.29 48.532,150.832 49.455,150.271C50.377,149.711 51.408,149.147 51.746,149.019C52.084,148.89 52.36,148.687 52.36,148.568C52.36,148.448 52.819,148.199 53.379,148.014C53.94,147.829 54.478,147.549 54.575,147.392C54.672,147.235 55.148,146.95 55.632,146.758C56.117,146.567 56.57,146.347 56.639,146.27C56.893,145.987 58.378,145.207 62.933,142.965C69.704,139.632 71.116,138.955 71.306,138.955C71.4,138.955 72.096,138.672 72.852,138.326C73.609,137.98 74.322,137.697 74.437,137.697C74.552,137.697 75.04,137.485 75.523,137.227C76.005,136.968 76.797,136.672 77.281,136.568C77.766,136.465 78.276,136.29 78.414,136.18C78.553,136.07 79.402,135.789 80.302,135.557C81.202,135.325 82.052,135.048 82.19,134.941C82.329,134.835 83.007,134.611 83.697,134.442C84.388,134.273 85.067,134.047 85.207,133.94C85.348,133.832 86.199,133.597 87.099,133.417C87.999,133.237 88.848,133.009 88.987,132.909C89.125,132.81 90.031,132.585 91.001,132.41C91.97,132.235 92.876,132.004 93.014,131.896C93.153,131.788 94.229,131.566 95.406,131.404C96.583,131.241 97.734,131.01 97.965,130.89C98.195,130.769 99.894,130.543 101.74,130.387C103.587,130.231 105.37,129.971 105.702,129.81C106.502,129.42 128.071,129.401 128.333,129.789C128.43,129.932 130.32,130.194 132.535,130.371C134.749,130.548 136.619,130.778 136.689,130.882C136.758,130.987 138.062,131.216 139.585,131.392C141.108,131.568 142.467,131.793 142.605,131.892C142.744,131.992 143.82,132.221 144.997,132.401C146.174,132.581 147.25,132.809 147.388,132.907C147.527,133.005 148.49,133.23 149.528,133.406C150.566,133.583 151.529,133.813 151.668,133.917C151.806,134.021 152.712,134.249 153.682,134.424C154.651,134.599 155.557,134.822 155.695,134.92C155.834,135.018 156.967,135.303 158.213,135.552C159.459,135.802 160.599,136.101 160.747,136.215C160.895,136.33 161.631,136.553 162.383,136.712C163.135,136.871 163.864,137.083 164.003,137.184C164.141,137.284 164.821,137.515 165.513,137.697C166.205,137.878 166.885,138.107 167.023,138.206C167.162,138.305 167.728,138.465 168.282,138.561C168.836,138.657 169.69,138.941 170.18,139.192C170.67,139.442 171.463,139.731 171.942,139.834C172.421,139.936 172.928,140.112 173.068,140.224C173.208,140.337 173.86,140.564 174.516,140.729C175.171,140.894 175.708,141.113 175.708,141.216C175.708,141.319 176.388,141.548 177.218,141.724C178.049,141.901 178.729,142.125 178.729,142.222C178.729,142.32 179.21,142.537 179.799,142.704C180.387,142.872 181.208,143.158 181.624,143.34C182.039,143.522 182.775,143.843 183.26,144.055C183.744,144.266 184.537,144.577 185.022,144.745C185.913,145.054 186.689,145.368 188.295,146.069C188.779,146.28 189.572,146.601 190.057,146.781C190.541,146.961 190.994,147.183 191.064,147.274C191.133,147.365 191.812,147.642 192.574,147.888C193.335,148.134 194.097,148.445 194.266,148.579C194.849,149.041 198.112,145.082 198.112,143.913C198.112,143.582 196.093,141.473 195.777,141.473C195.658,141.473 195.187,141.076 194.73,140.592C194.273,140.107 193.816,139.711 193.714,139.711C193.612,139.711 192.763,139.059 191.826,138.263C189.347,136.155 189.065,135.935 188.849,135.935C188.741,135.935 188.261,135.599 187.782,135.19C187.302,134.78 186.781,134.44 186.622,134.434C186.464,134.429 186.269,134.254 186.19,134.047C186.11,133.839 185.923,133.669 185.774,133.669C185.626,133.669 184.891,133.216 184.141,132.662C183.391,132.108 182.688,131.652 182.578,131.648C182.469,131.644 181.934,131.304 181.39,130.893C180.846,130.481 180.289,130.145 180.151,130.145C180.014,130.145 179.722,129.99 179.504,129.8C179.095,129.445 177.308,128.405 175.645,127.554C175.126,127.289 174.701,126.97 174.701,126.846C174.701,126.722 174.576,126.621 174.423,126.621C174.117,126.621 168.862,124.071 168.66,123.824C168.59,123.74 168.109,123.519 167.59,123.333C167.07,123.147 166.646,122.905 166.646,122.794C166.646,122.683 166.469,122.593 166.252,122.593C166.036,122.593 165.215,122.298 164.427,121.938C161.957,120.809 161.512,120.624 160.478,120.293C159.924,120.116 159.355,119.888 159.213,119.788C159.072,119.687 158.392,119.42 157.703,119.194C157.014,118.968 156.094,118.621 155.657,118.422C155.221,118.224 154.708,118.062 154.518,118.062C154.327,118.062 153.943,117.902 153.665,117.707C153.387,117.512 152.455,117.214 151.595,117.045C150.735,116.876 150.031,116.654 150.031,116.551C150.031,116.449 149.323,116.226 148.458,116.056C147.593,115.886 146.772,115.674 146.633,115.584C146.25,115.337 144.189,114.813 143.549,114.8C143.238,114.794 142.983,114.694 142.983,114.578C142.983,114.461 142.162,114.222 141.158,114.045C140.154,113.868 139.22,113.641 139.081,113.54C138.943,113.44 137.81,113.213 136.564,113.036C135.318,112.86 134.185,112.626 134.047,112.518C133.908,112.409 132.662,112.185 131.278,112.019C129.893,111.854 128.534,111.624 128.257,111.508C127.682,111.269 122.789,110.76 121.07,110.761C120.44,110.761 119.813,110.65 119.676,110.513C119.415,110.252 106.66,109.994 102.58,110.167M240.403,130.557C239.503,130.611 238.54,130.755 238.263,130.876C237.986,130.997 236.69,131.234 235.384,131.403C234.077,131.572 232.831,131.802 232.615,131.914C232.398,132.026 231.372,132.252 230.334,132.417C229.295,132.581 228.106,132.867 227.69,133.052C227.275,133.236 226.425,133.519 225.802,133.679C225.179,133.839 224.556,134.049 224.418,134.145C224.279,134.241 223.713,134.464 223.159,134.64C221.797,135.074 221.573,135.173 218.25,136.82C214.411,138.724 214.021,138.943 212.533,140.035C211.833,140.549 211.143,140.969 211,140.969C210.857,140.969 210.703,141.054 210.657,141.158C210.61,141.262 209.836,141.952 208.936,142.691C207.333,144.009 204.405,147.152 204.405,147.557C204.405,147.669 204.023,148.262 203.557,148.873C203.09,149.485 202.627,150.42 202.527,150.952C202.428,151.484 202.215,152.078 202.054,152.273C201.663,152.746 201.655,158.037 202.045,158.285C202.201,158.384 202.41,158.84 202.509,159.3C202.609,159.759 202.85,160.196 203.045,160.27C203.239,160.345 203.398,160.546 203.398,160.716C203.398,161.462 208.499,165.639 209.41,165.639C209.565,165.639 209.692,165.734 209.692,165.85C209.692,165.966 210.173,166.215 210.761,166.404C211.35,166.592 212.058,166.88 212.335,167.045C212.612,167.21 213.291,167.424 213.845,167.521C214.399,167.618 214.968,167.793 215.109,167.91C215.251,168.027 216.61,168.253 218.13,168.412C219.65,168.572 221.09,168.806 221.331,168.933C221.898,169.231 231.715,169.234 232.288,168.935C232.528,168.81 234.131,168.582 235.85,168.428C237.569,168.275 239.098,168.054 239.249,167.938C239.399,167.822 240.365,167.593 241.397,167.428C242.428,167.263 243.391,167.038 243.536,166.928C243.682,166.819 244.457,166.588 245.259,166.415C246.061,166.243 247.024,165.941 247.399,165.746C247.774,165.55 248.254,165.389 248.465,165.389C248.677,165.388 249.073,165.242 249.346,165.064C249.619,164.886 250.296,164.592 250.85,164.411C251.854,164.082 255.295,162.545 256.01,162.106C256.218,161.979 256.897,161.606 257.52,161.279C258.143,160.951 259.021,160.487 259.471,160.248C259.921,160.008 260.289,159.707 260.289,159.579C260.289,159.45 260.435,159.346 260.614,159.346C260.792,159.346 261.33,159.01 261.809,158.601C262.289,158.191 262.767,157.851 262.873,157.845C262.979,157.84 263.629,157.269 264.317,156.576C265.006,155.884 265.684,155.318 265.824,155.318C265.965,155.318 266.079,155.205 266.079,155.066C266.079,154.928 266.504,154.38 267.023,153.848C267.947,152.903 268.1,152.705 269.089,151.164C269.355,150.749 269.689,150.277 269.83,150.116C269.971,149.955 270.161,149.502 270.253,149.109C270.344,148.716 270.603,148.112 270.828,147.766C271.426,146.846 271.403,142.153 270.796,141.095C270.557,140.68 270.361,140.233 270.36,140.102C270.354,139.087 266.726,135.374 264.879,134.491C264.149,134.142 263.491,133.758 263.417,133.637C263.342,133.516 263.061,133.417 262.792,133.417C262.523,133.417 262.303,133.322 262.303,133.205C262.303,133.089 261.595,132.791 260.73,132.544C259.865,132.297 258.817,131.951 258.402,131.775C257.986,131.599 256.91,131.374 256.01,131.275C255.11,131.176 254.234,130.982 254.062,130.843C253.744,130.586 243.478,130.371 240.403,130.557M338.389,145.926C338.631,145.989 339.028,145.989 339.27,145.926C339.512,145.862 339.314,145.81 338.829,145.81C338.345,145.81 338.147,145.862 338.389,145.926M333.103,146.429C333.345,146.492 333.741,146.492 333.984,146.429C334.226,146.366 334.028,146.314 333.543,146.314C333.059,146.314 332.86,146.366 333.103,146.429M327.816,146.932C328.059,146.996 328.455,146.996 328.697,146.932C328.94,146.869 328.741,146.817 328.257,146.817C327.772,146.817 327.574,146.869 327.816,146.932M317.621,147.944C317.933,148.004 318.442,148.004 318.754,147.944C319.065,147.884 318.811,147.834 318.188,147.834C317.565,147.834 317.31,147.884 317.621,147.944M373.946,154.059C374.223,154.178 374.619,154.276 374.827,154.276C375.065,154.276 375.018,154.196 374.701,154.059C374.424,153.94 374.028,153.843 373.82,153.843C373.582,153.843 373.629,153.923 373.946,154.059M109.943,157.262C110.393,157.318 111.13,157.318 111.58,157.262C112.03,157.206 111.661,157.16 110.761,157.16C109.862,157.16 109.493,157.206 109.943,157.262M132.159,165.009C133.051,165.909 133.837,166.646 133.906,166.646C133.975,166.646 133.302,165.909 132.41,165.009C131.518,164.11 130.732,163.373 130.663,163.373C130.594,163.373 131.267,164.11 132.159,165.009M282.694,179.358C282.694,187.088 282.754,193.353 282.828,193.279C282.995,193.112 282.983,165.592 282.815,165.425C282.748,165.358 282.694,171.628 282.694,179.358M106.545,174.129C107.064,174.184 107.914,174.184 108.433,174.129C108.952,174.075 108.527,174.031 107.489,174.031C106.451,174.031 106.026,174.075 106.545,174.129M138.797,180.994C138.797,182.448 138.838,183.043 138.889,182.316C138.94,181.589 138.94,180.4 138.889,179.673C138.838,178.946 138.797,179.541 138.797,180.994M244.622,180.921C244.935,180.981 245.388,180.979 245.629,180.916C245.87,180.853 245.614,180.803 245.06,180.806C244.506,180.809 244.309,180.86 244.622,180.921M235.305,181.927C235.617,181.987 236.126,181.987 236.438,181.927C236.75,181.867 236.495,181.818 235.872,181.818C235.249,181.818 234.994,181.867 235.305,181.927M214.665,216.111C214.63,234.733 214.685,249.969 214.789,249.969C214.893,249.969 214.978,234.733 214.978,216.111C214.978,197.489 214.922,182.253 214.854,182.253C214.786,182.253 214.701,197.489 214.665,216.111M262.171,205.916C262.171,215.953 262.202,220.06 262.24,215.041C262.278,210.022 262.278,201.809 262.24,196.79C262.202,191.772 262.171,195.878 262.171,205.916M374.575,213.09C375.045,213.575 375.486,213.971 375.555,213.971C375.624,213.971 375.297,213.575 374.827,213.09C374.357,212.605 373.916,212.209 373.847,212.209C373.778,212.209 374.106,212.605 374.575,213.09M282.785,216.866C282.786,218.25 282.828,218.785 282.879,218.053C282.93,217.322 282.93,216.189 282.878,215.536C282.827,214.883 282.785,215.481 282.785,216.866M286.721,217.873C287.473,218.634 288.145,219.257 288.214,219.257C288.284,219.257 287.725,218.634 286.973,217.873C286.221,217.111 285.549,216.488 285.48,216.488C285.411,216.488 285.969,217.111 286.721,217.873M282.693,243.6C282.624,247.089 282.655,249.857 282.761,249.75C282.867,249.644 282.924,246.789 282.887,243.406L282.819,237.256L282.693,243.6M351.726,239.648C351.726,240.132 351.778,240.33 351.841,240.088C351.905,239.846 351.905,239.449 351.841,239.207C351.778,238.965 351.726,239.163 351.726,239.648" style="fill:rgb(252,212,44);"/>
                    </g>
                </g>
            </g>
        </g>
    </g>
</svg>
